<svg xmlns="http://www.w3.org/2000/svg" id="Layer_1" version="1.1" viewBox="0 0 231.7 136.8"><defs><style>.st0{fill:#fbb11b}</style></defs><path d="m103.7 63.2 2.2-2 28.7-27.4q2.2-2.3 5.2-3 2.6-.5 4.8.9c5.4 3.8 5.5 10 1.3 13.8q-10.5 9.7-20.8 19.5-1 .8 0 1.6l24 27.2a8 8 0 0 1 1 10.5 9 9 0 0 1-9.4 3.8 7 7 0 0 1-3.8-2.2Q124 92.4 111.6 78.7c-.7-.7-1-.7-1.8 0l-5.7 5q-.5.5-.4 1.2v14.7a8 8 0 0 1-4.9 8 8.6 8.6 0 0 1-11.5-4.1q-1-2-.9-4.2V10A8 8 0 0 1 90 2.8a8 8 0 0 1 9.2-.8 8 8 0 0 1 4.5 7.7z" class="st0"/><path d="M59.9 63a29 29 0 0 0-2-10 17 17 0 0 0-6.2-7.5 18 18 0 0 0-10-2.7q-6.2-.1-11.4 3.1a20 20 0 0 0-7.1 8.8 30 30 0 0 0-2.1 8.3z" style="fill:none"/><path d="M73.6 91a6 6 0 0 0-4-1.8q-3.1-.1-5.8 1.6-4.6 2.6-9.8 3.6-4.5 1-9.2 1-12 .1-18-6.4-5.2-6.2-5.8-14.5h47.8q3.1.1 5.6-1.5 2.1-1.7 2-4.4 0-8.4-2.4-16.4A31 31 0 0 0 55.7 32a39 39 0 0 0-14.9-2.8q-10.7-.1-20 5.2A37 37 0 0 0 7.1 48.7 44 44 0 0 0 2 70q-.2 11.5 5.1 21.6A35 35 0 0 0 22 105.7q10.6 5.3 22.6 5 6.8 0 13.3-1.7a41 41 0 0 0 12.8-5.2q2.5-1.5 4-4.2a8 8 0 0 0 .9-4.7 7 7 0 0 0-1.9-4M30.3 46q5.2-3.3 11.3-3.2 5.5-.2 10 2.7 4.3 2.8 6.2 7.6t2 10H21.2a30 30 0 0 1 2.1-8.3q2.4-5.5 7.1-8.8M194 27.2h-3.2c-1 0-1.9.9-1.9 2v.1l1.6 20.3a2 2 0 0 0 3.9 0l1.5-20.3c.1-1-.7-2-1.8-2zm-10.3 3.1a2 2 0 0 0-2.4-1.4h-.2l-3 1.2a2 2 0 0 0-1 2.5v.1l8.3 18.5A2 2 0 0 0 189 50zm-11.2 5.1a2 2 0 0 0-2.7-.5l-.1.1-2.4 2c-.9.8-1 2-.3 2.8l.1.2 14.1 14.5q1.4 1 2.8-.1a2 2 0 0 0 .2-2.4zm7.8 20.2-16.6-11.5a2 2 0 0 0-2.7.5v.1l-1.6 2.8a2 2 0 0 0 .7 2.7l18.2 8.8a2 2 0 0 0 2.6-1 2 2 0 0 0-.6-2.4m-2.5 4.8-19.4-5.1a2 2 0 0 0-2.4 1.4v.1l-.6 3.2a2 2 0 0 0 1.6 2.2h.1l20 2q1.8 0 2.2-1.8a2 2 0 0 0-1.5-2M206.9 30l-3-1a2 2 0 0 0-2.5 1.1v.2L196 49.9a2 2 0 0 0 1.5 2.3 2 2 0 0 0 2.1-1l8.4-18.5a2 2 0 0 0-1-2.6zm10.9 7-2.4-2a2 2 0 0 0-2.7.3l-.1.1L200.9 52a2 2 0 0 0 .6 2.7 2 2 0 0 0 2.4-.2l14-14.5a2 2 0 0 0 0-2.9M206.7 59l18.2-8.8a2 2 0 0 0 .9-2.6v-.1l-1.7-2.8a2 2 0 0 0-2.6-.7h-.1l-16.6 11.6a2 2 0 0 0-.4 2.8 2 2 0 0 0 2.3.6m22.9 1-.5-3.2a2 2 0 0 0-2.3-1.5h-.1l-19.5 5.1a2 2 0 0 0-1.4 2.4 2 2 0 0 0 2 1.5l20-2a2 2 0 0 0 1.8-2.1zm-.3 13.6a7 7 0 0 0-7.2-7 7 7 0 0 0-6.8 7.8c-.4 13-11.2 23-24 22.6a23.3 23.3 0 0 1-22.2-23.4c0-3.9-3.3-7-7.2-7a7 7 0 0 0-6.9 7 37.4 37.4 0 0 0 38 36.7 37.4 37.4 0 0 0 36.3-36.7M3 132l-.7-.3-.2-.8v-14q0-.5.2-.8.4-.3.7-.3h5q1.6 0 2.7.4a5 5 0 0 1 2.7 2.9 6 6 0 0 1 0 3.6 5 5 0 0 1-2.7 2.9q-1.2.4-2.8.4H4v5q0 .3-.3.7t-.7.3m1-8h3.7q1.7 0 2.5-.4t1.2-1.2c.3-.8.3-1 .3-1.5l-.3-1.5q-.3-.6-1.2-1.1c-.9-.5-1.4-.5-2.5-.5H4zm13.8 7.9q-.5 0-1-.5-.3-.3-.3-1v-13.7q0-.4.3-.7t.7-.3.7.3q.3.4.2.8v13h7q.5 0 .8.3.3.4.2.7 0 .5-.2.8l-.7.3zm10.6.1-.7-.3a1 1 0 0 1-.2-1.2l5.5-13.9q0-.3.4-.6.3-.3.8-.3h.2q.5 0 .8.3l.5.6 5.4 13.9.1.4q0 .5-.2.8t-.7.3q-.7 0-1-.7l-1.3-3.6h-7.3l-1.4 3.6q-.3.7-1 .7m3-6.2h5.8l-2.9-7.4zm16.2 6.2q-.4 0-.7-.3-.4-.4-.3-.8v-13.1h-4.3q-.4 0-.7-.3l-.2-.7q0-.4.2-.7t.7-.3h10.6q.4 0 .7.3.4.3.3.7 0 .5-.3.7l-.6.3h-4.4v13.1q0 .5-.3.8t-.7.3m9.5 0-.6-.3-.3-.8v-14q0-.5.3-.8t.7-.3h8.3q.4 0 .7.3t.3.7-.3.7-.7.3h-7.3v5h6.6l.6.3q.3.4.3.7 0 .4-.3.7l-.6.3H58v6.1q0 .5-.3.8t-.7.3m18.4 0q-2.4 0-4-1a7 7 0 0 1-2.6-2.9 10 10 0 0 1 0-8.6 7 7 0 0 1 2.6-2.9q1.6-1 4-1c2.4 0 2.8.3 4 1q1.6 1 2.5 3a10 10 0 0 1 0 8.5 7 7 0 0 1-2.6 3q-1.5 1-4 1m0-1.9q1.6 0 3-.8c1.4-.8 1.4-1.3 1.9-2.3q.6-1.4.6-3.2c0-1.8-.2-2.2-.6-3.2q-.6-1.5-2-2.3-1.2-.8-3-.8c-1.7 0-2.1.3-3 .8q-1.2 1-1.9 2.3-.6 1.4-.6 3.2c0 1.8.2 2.3.6 3.2q.7 1.4 2 2.3 1.2.8 3 .8m11.8 1.8-.7-.3-.3-.8v-14q0-.5.3-.8t.7-.3h5q2.1 0 3.3.6c1.2.6 1.5 1 2 1.7q.5 1 .5 2.4c0 1.4-.2 1.7-.7 2.4s-1.1 1.4-2 1.7q.8.3 1.4 1 .7.8.8 1.4l.3 1.6.1 1.3v1q0 .5-.3.8-.4.4-.7.3l-.7-.3-.3-.8v-2q0-.7-.4-1.6-.3-.8-1-1.2-.6-.5-1.9-.5h-4.4v5.3q0 .5-.3.8-.4.4-.7.3m1-8.4H92a5 5 0 0 0 2.9-.7q1-.8 1-2.3 0-.7-.3-1.5-.3-.6-1.2-1-1-.3-2.5-.3H88zm14.3 8.4-.7-.3-.3-.8v-13.7q0-.7.4-1 .5-.6 1-.5h.7q.5 0 .8.3l.5.6 4.9 13 4.9-13q.1-.4.5-.6.3-.3.8-.3h.7q.6 0 1 .4.5.6.4 1.1v13.7q0 .5-.3.8-.4.4-.7.3-.4 0-.7-.3-.4-.4-.3-.8v-13l-5 13.1a1.4 1.4 0 0 1-1.3 1 1.4 1.4 0 0 1-1.4-1l-5-13.1v13q0 .5-.2.8-.4.4-.7.3m30 0a12 12 0 0 1-5-1l-.5-.4-.2-.6q0-.4.3-.6.2-.3.6-.3h.4q.7.4 1.8.7c1.1.3 1.5.3 2.4.3l2-.2q.8-.3 1.3-.9t.5-1.6q0-.6-.5-1.1l-1.3-.8-1.8-.5-3.7-1.4a4 4 0 0 1-1.3-1.3q-.6-.8-.5-2 0-1.4.6-2.4t1.9-1.7q1.2-.6 3-.6a12 12 0 0 1 4.3.7q.3 0 .4.3l.2.6q0 .4-.2.7l-.8.3h-.2a11 11 0 0 0-3.4-.7q-1.6 0-2.8.7c-1.2.7-1 1-1 2q0 .8.4 1.3l1.3.8 1.8.5 2 .6 1.7.7q.9.5 1.3 1.4.6.8.5 2c0 1.3-.2 1.7-.6 2.4q-.7 1-2 1.6-1.2.6-2.9.6Zm9.5-.1-.7-.4-.3-.7v-14q0-.4.3-.7.4-.4.7-.3h8.6q.4 0 .6.3.3.3.3.7 0 .5-.3.7l-.6.2h-7.6v5.1h6.8q.4 0 .7.3l.2.7q0 .4-.2.7-.3.4-.7.3H143v5h7.6q.4 0 .6.4.3.4.3.7 0 .4-.3.7-.4.3-.6.2zm13.7.1q-.4 0-.7-.3-.4-.4-.3-.8v-14q0-.5.3-.8.4-.4.7-.3h5q2 0 3.3.6a4 4 0 0 1 2.5 4q0 1.5-.7 2.5a4 4 0 0 1-2.1 1.7q.8.3 1.4 1t.8 1.4l.4 1.6v2.3q0 .5-.2.8t-.7.3-.7-.3-.3-.8v-2l-.4-1.6q-.3-.8-1-1.2-.7-.5-2-.5h-4.4v5.3q0 .5-.2.8t-.7.3m1-8.4h3.8a5 5 0 0 0 3-.7q1-.8 1-2.3 0-.7-.3-1.5-.4-.6-1.3-1-.9-.3-2.5-.3h-3.8zM175 132q-.9 0-1.3-1l-5.3-13.9-.1-.3q0-.5.3-.8.4-.4.7-.3.6 0 .9.7l5 13.5 5-13.5q.4-.7 1-.7.4 0 .7.3.4.3.3.8l-.1.3-5.3 13.8q-.4 1-1.3 1zm10.7 0q-.4 0-.7-.3-.4-.4-.3-.8v-14.2q0-.4.3-.7.3-.4.7-.3.5 0 .7.3.3.3.3.7V131q0 .5-.3.8-.4.4-.7.3m11.8-.1q-2.1.1-3.9-1-1.6-.9-2.7-2.8-1-1.8-1-4.4c0-2.6.4-3.2 1-4.4a7 7 0 0 1 6.6-3.8q1.6 0 2.7.4t2.1 1q.3 0 .4.3l.1.5q0 .4-.2.7l-.6.3-.4-.1-1.8-.8c-.9-.3-1.3-.3-2.2-.3q-1.9 0-3.1.8t-2 2.3-.6 3.1c0 1.7.2 2.3.6 3.2q.7 1.4 2 2.3t3.1.8a7 7 0 0 0 4-1l.4-.2q.4 0 .6.3.3.3.2.6l-.1.6-.4.3q-.9.6-2.1 1c-1.2.4-1.7.4-2.7.4m9.2-.2-.7-.4-.2-.7v-14q0-.4.2-.7.3-.4.7-.3h8.6q.4 0 .7.3t.2.7-.2.7-.7.2h-7.6v5.1h6.8q.4 0 .7.3t.3.7-.3.7l-.6.3h-6.9v5h7.6q.4 0 .7.4t.2.7-.2.7-.7.2zm17.5.1a12 12 0 0 1-5.1-1l-.5-.4-.1-.6q0-.4.2-.6l.6-.3h.4l1.8.7a9 9 0 0 0 4.4 0q.8-.2 1.3-.8t.5-1.6q0-.6-.5-1.1t-1.3-.8l-1.8-.5-3.7-1.4a4 4 0 0 1-1.3-1.3q-.5-.8-.5-2 0-1.4.6-2.4t2-1.7q1.1-.6 3-.6a12 12 0 0 1 4.2.7q.3 0 .4.3.3.3.2.6 0 .4-.2.7l-.8.3h-.2a11 11 0 0 0-3.4-.7q-1.6 0-2.7.7c-1.1.7-1.1 1-1.1 2q0 .8.5 1.3t1.3.8l1.8.5q1 .2 1.9.6l1.8.7q.8.5 1.3 1.4t.5 2c0 1.3-.3 1.7-.7 2.4q-.7 1-2 1.6-1.1.6-2.8.6Z" class="st0"/></svg>