<?xml version="1.0" encoding="UTF-8"?>
<svg id="Layer_1" data-name="Layer 1" xmlns="http://www.w3.org/2000/svg" viewBox="0 0 231.65 136.85">
  <defs>
    <style>
      .cls-1 {
        fill: #fbb11b;
      }

      .cls-2 {
        fill: none;
      }

      .cls-3 {
        fill: #fffefd;
      }
    </style>
  </defs>
  <g>
    <path class="cls-1" d="M105.69,62.23c.83-.77,1.52-1.41,2.21-2.06,9.58-9.11,19.15-18.23,28.71-27.37,1.4-1.55,3.23-2.62,5.24-3.08,1.64-.33,3.34.03,4.72.98,5.42,3.8,5.49,9.94,1.33,13.76-7,6.44-13.88,13.02-20.83,19.51-.67.63-.67.95-.06,1.64,8.08,9.03,16.13,18.08,24.16,27.15,2.91,2.77,3.31,7.3.93,10.54-2.08,3.11-5.82,4.62-9.44,3.82-1.47-.33-2.81-1.12-3.81-2.26-8.45-9.04-16.88-18.08-25.3-27.13-.67-.73-1.04-.69-1.71-.06-1.88,1.73-3.81,3.4-5.75,5.06-.33.3-.49.75-.43,1.19,0,4.88.02,9.77,0,14.66.19,3.42-1.75,6.6-4.86,7.95-4.29,2.1-9.44.28-11.51-4.07-.62-1.29-.91-2.72-.85-4.15.1-19.28.03-38.57.03-57.85V9.03c-.17-2.85,1.11-5.59,3.4-7.26,2.68-2.07,6.32-2.35,9.28-.71,2.93,1.42,4.72,4.49,4.52,7.77v53.39h.03Z"/>
    <path class="cls-2" d="M61.89,61.99c-.1-3.41-.8-6.77-2.06-9.92-1.26-3.1-3.41-5.75-6.17-7.61-3.02-1.85-6.51-2.77-10.04-2.64-3.99-.12-7.93.96-11.31,3.12-3.18,2.16-5.65,5.22-7.11,8.8-1.1,2.63-1.82,5.41-2.14,8.24h38.83Z"/>
    <path class="cls-1" d="M75.64,90c-1.07-1.1-2.51-1.76-4.03-1.84-2.07-.06-4.12.53-5.85,1.68-3.04,1.7-6.32,2.91-9.72,3.6-3.04.65-6.14,1-9.25,1.04-7.9,0-13.88-2.16-17.95-6.49-3.48-4.04-5.53-9.14-5.83-14.49h47.8c1.99.13,3.96-.41,5.61-1.52,1.34-1.05,2.08-2.69,1.98-4.4.08-5.57-.75-11.11-2.45-16.41-1.48-4.59-3.9-8.82-7.1-12.4-3.12-3.42-6.96-6.1-11.23-7.85-4.71-1.86-9.73-2.78-14.79-2.7-7.01-.13-13.92,1.67-20,5.2-5.79,3.41-10.55,8.36-13.75,14.32-3.44,6.54-5.16,13.88-5,21.29-.19,7.53,1.58,14.98,5.14,21.6,3.4,6.05,8.48,10.95,14.63,14.08,7.03,3.47,14.79,5.18,22.61,4.97,4.5-.05,8.98-.61,13.36-1.69,4.5-1,8.8-2.76,12.73-5.2,1.71-.97,3.1-2.42,4.03-4.16.76-1.44,1.07-3.09.87-4.72-.18-1.47-.82-2.85-1.82-3.92ZM32.31,44.95c3.38-2.16,7.31-3.25,11.31-3.12,3.53-.13,7.02.79,10.04,2.64,2.77,1.85,4.92,4.51,6.17,7.62,1.27,3.16,1.97,6.52,2.06,9.92H23.06c.32-2.84,1.04-5.61,2.14-8.24,1.46-3.59,3.94-6.66,7.12-8.82Z"/>
    <path class="cls-1" d="M196,26.22h-3.16c-1.07,0-1.93.87-1.93,1.95,0,.05,0,.11,0,.16l1.58,20.3c.12,1.08,1.08,1.85,2.15,1.73.9-.1,1.61-.82,1.71-1.73l1.58-20.3c.08-1.08-.72-2.03-1.79-2.11-.05,0-.09,0-.14,0h0Z"/>
    <path class="cls-1" d="M185.68,29.27c-.29-1.05-1.36-1.66-2.39-1.37-.05.01-.1.03-.15.05l-2.97,1.1c-1.01.38-1.52,1.51-1.15,2.53.02.04.03.09.05.13l8.34,18.51c.48.97,1.65,1.36,2.61.88.81-.41,1.23-1.32,1.02-2.21l-5.36-19.61Z"/>
    <path class="cls-1" d="M174.49,34.39c-.62-.88-1.83-1.09-2.69-.46-.04.03-.08.06-.13.1l-2.42,2.05c-.82.7-.92,1.94-.23,2.77.03.04.06.07.09.11l14.1,14.52c.78.74,2.01.7,2.74-.1.61-.66.69-1.66.21-2.41l-11.67-16.58Z"/>
    <path class="cls-1" d="M182.27,54.61l-16.57-11.53c-.89-.61-2.09-.38-2.7.51-.03.04-.05.08-.07.12l-1.58,2.77c-.54.94-.22,2.14.71,2.69.04.02.08.05.13.07l18.15,8.77c.98.44,2.13-.02,2.56-1.01.36-.84.1-1.83-.63-2.37h0Z"/>
    <path class="cls-1" d="M179.84,59.39l-19.47-5.1c-1.04-.27-2.1.36-2.36,1.41-.01.04-.02.09-.03.13l-.55,3.15c-.19,1.06.51,2.08,1.56,2.27.05,0,.1.02.16.02l20.02,1.95c1.07.09,2.01-.71,2.1-1.79.08-.95-.52-1.82-1.43-2.07v.02Z"/>
    <path class="cls-1" d="M208.87,29.04l-2.96-1.1c-1.01-.37-2.12.17-2.48,1.19-.02.04-.03.09-.04.13l-5.38,19.62c-.25,1.06.4,2.12,1.44,2.37.88.21,1.78-.22,2.19-1.03l8.34-18.51c.45-.98.04-2.14-.93-2.6-.05-.03-.11-.05-.16-.07h0Z"/>
    <path class="cls-1" d="M219.81,36.08l-2.42-2.05c-.82-.7-2.04-.59-2.72.24-.03.04-.07.08-.1.13l-11.67,16.59c-.59.91-.34,2.13.55,2.72.75.5,1.75.41,2.4-.21l14.1-14.52c.75-.78.74-2.02-.03-2.78-.04-.04-.07-.07-.11-.1h0Z"/>
    <path class="cls-1" d="M208.72,58l18.15-8.77c.97-.47,1.38-1.64.91-2.62-.02-.04-.04-.09-.07-.13l-1.58-2.77c-.53-.94-1.72-1.26-2.64-.72-.04.03-.09.05-.13.08l-16.57,11.53c-.87.64-1.06,1.87-.43,2.75.54.75,1.52,1.01,2.36.64h0Z"/>
    <path class="cls-1" d="M231.63,58.99l-.55-3.15c-.2-1.07-1.21-1.77-2.27-1.57-.04,0-.09.02-.13.03l-19.46,5.1c-1.04.28-1.65,1.36-1.37,2.41.24.92,1.1,1.53,2.04,1.45l20-1.95c1.07-.1,1.85-1.07,1.75-2.15,0-.06-.01-.11-.02-.17h0Z"/>
    <path class="cls-1" d="M231.34,72.59h0c-.1-3.93-3.33-7.04-7.22-6.93-3.76.1-6.77,3.17-6.85,6.97,0,.26.02.51.05.77-.47,12.93-11.2,23.03-23.98,22.56-12.12-.45-21.84-10.29-22.28-22.56.03-.26.05-.51.05-.77-.08-3.93-3.29-7.06-7.18-6.97-3.76.08-6.79,3.13-6.89,6.94h0v.03h0c.49,20.77,17.52,37.2,38.03,36.7,19.82-.48,35.78-16.64,36.25-36.7v-.05.02Z"/>
  </g>
  <g>
    <path class="cls-3" d="M21.06,114.53h4.9c2.95,0,4.64,1.68,4.64,4.07,0,3.32-2.41,4.93-5.76,4.93h-2.82l-1.11,5.4h-2.83l2.98-14.39ZM22.51,121.17h2.16c1.9,0,2.93-.73,2.93-2.39,0-1.25-.7-1.9-2.21-1.9h-1.98l-.89,4.28Z"/>
    <path class="cls-3" d="M33.75,114.53h2.87l-2.47,11.98h6.74l-.81,2.41h-9.31l2.98-14.39Z"/>
    <path class="cls-3" d="M46.29,125.52l-1.73,3.41h-3.02l7.57-14.39h3.64l1.82,14.39h-2.89l-.44-3.41h-4.95ZM51.12,123.1c-.32-2.97-.53-5.02-.6-6.32h-.02c-.65,1.43-1.78,3.75-3.09,6.32h3.71Z"/>
    <path class="cls-3" d="M59.87,116.94h-4.1l.51-2.41h11.06l-.51,2.41h-4.09l-2.47,11.98h-2.87l2.47-11.98Z"/>
    <path class="cls-3" d="M69.4,114.53h9.39l-.51,2.41h-6.57l-.73,3.68h6.14l-.51,2.39h-6.14l-1.21,5.91h-2.84l2.98-14.39Z"/>
    <path class="cls-3" d="M92.13,120.32c0,4.43-2.41,8.82-7.75,8.82-3.73,0-5.54-2.53-5.54-5.8,0-4.28,2.55-9.02,7.64-9.02,3.88,0,5.65,2.65,5.65,5.99ZM81.81,123.23c0,2.18.96,3.55,2.94,3.55,3.16,0,4.43-3.5,4.43-6.5,0-2.11-.82-3.6-2.88-3.6-2.98,0-4.49,3.5-4.49,6.55Z"/>
    <path class="cls-3" d="M97.32,123.06l-1.21,5.87h-2.85l2.98-14.39h5.35c2.68,0,4.28,1.4,4.28,3.77,0,1.98-1.16,3.29-2.88,3.76.57.28,1.66.98,1.16,3.43-.35,1.68-.58,2.76-.48,3.44h-2.73c-.08-.63.03-1.66.4-3.45.33-1.57.05-2.42-1.49-2.42h-2.53ZM97.79,120.7h2.36c1.64,0,2.79-.59,2.79-2.12,0-1.09-.6-1.7-2.03-1.7h-2.33l-.79,3.81Z"/>
    <path class="cls-3" d="M118.64,123.53c.5-2.46,1.13-5.34,1.51-6.97h-.08c-1.23,2.91-3.52,7.86-5.68,12.36h-2.49c-.19-3.54-.53-9.67-.52-12.4h-.09c-.22,1.67-.81,4.77-1.32,7.24l-1.07,5.16h-2.66l2.98-14.39h4.33c.22,3.5.44,8.42.45,10.56h.02c.75-1.95,3.1-6.63,4.94-10.56h4.34l-2.98,14.39h-2.8l1.12-5.4Z"/>
    <path class="cls-3" d="M131.03,124.5c.11,1.45,1.01,2.37,2.8,2.37,1.52,0,2.39-.57,2.39-1.88,0-1.11-.68-1.71-2.55-2.37-2.86-1-3.91-2.18-3.91-3.99,0-2.31,1.6-4.3,5.16-4.3,3.26,0,5.04,1.72,5.09,4.25h-2.92c-.06-.87-.44-1.95-2.29-1.95-1.19,0-2.07.56-2.07,1.67,0,.8.45,1.31,2.25,1.95,2.85,1.03,4.27,2.19,4.27,4.36,0,2.29-1.36,4.52-5.69,4.52-3.51,0-5.35-1.82-5.43-4.63h2.92Z"/>
    <path class="cls-3" d="M151.19,122.63h-6.32l-.8,3.88h7.2l-.83,2.41h-9.69l2.98-14.39h9.44l-.51,2.41h-6.6l-.67,3.28h6.32l-.51,2.41Z"/>
    <path class="cls-3" d="M156.87,123.06l-1.21,5.87h-2.85l2.98-14.39h5.35c2.68,0,4.28,1.4,4.28,3.77,0,1.98-1.16,3.29-2.88,3.76.57.28,1.66.98,1.16,3.43-.35,1.68-.58,2.76-.48,3.44h-2.73c-.08-.63.03-1.66.4-3.45.33-1.57.05-2.42-1.49-2.42h-2.53ZM157.35,120.7h2.36c1.64,0,2.79-.59,2.79-2.12,0-1.09-.6-1.7-2.03-1.7h-2.33l-.79,3.81Z"/>
    <path class="cls-3" d="M168.96,128.92l-1.88-14.39h2.85l.73,6.65c.23,2.02.36,4.26.38,5.1h.04c.55-1.34,1.48-3.2,2.58-5.22l3.53-6.52h2.97l-7.96,14.39h-3.25Z"/>
    <path class="cls-3" d="M184.83,114.53l-2.98,14.39h-2.87l2.98-14.39h2.87Z"/>
    <path class="cls-3" d="M197.42,124.42c-.98,3.01-3.05,4.71-6.44,4.71s-5.29-2.19-5.29-5.81,2.1-9,7.55-9c3.15,0,5.08,1.74,5.18,4.77h-3c-.06-1.2-.56-2.41-2.5-2.41-2.77,0-4.16,3.65-4.16,6.61,0,1.95.63,3.48,2.54,3.48,1.64,0,2.5-.98,3.1-2.35h3.02Z"/>
    <path class="cls-3" d="M209.11,122.63h-6.32l-.8,3.88h7.2l-.83,2.41h-9.69l2.98-14.39h9.44l-.51,2.41h-6.6l-.67,3.28h6.32l-.51,2.41Z"/>
    <path class="cls-3" d="M213.75,124.5c.11,1.45,1.01,2.37,2.8,2.37,1.52,0,2.39-.57,2.39-1.88,0-1.11-.68-1.71-2.55-2.37-2.86-1-3.91-2.18-3.91-3.99,0-2.31,1.6-4.3,5.16-4.3,3.26,0,5.04,1.72,5.09,4.25h-2.92c-.06-.87-.44-1.95-2.29-1.95-1.19,0-2.07.56-2.07,1.67,0,.8.45,1.31,2.25,1.95,2.85,1.03,4.27,2.19,4.27,4.36,0,2.29-1.36,4.52-5.69,4.52-3.51,0-5.35-1.82-5.43-4.63h2.92Z"/>
  </g>
</svg>